# xmcd
#
# Track frame offsets: 
#        150
#        23224
#        37254
#        52789
#        69426
#        86413
#        101879
#        114923
#        127973
#        141725
#        154625
#        170834
#        180006
#        190132
#        204247
#        215549
#        232476
#        253568
#        266539
#        275482
#
# Disc length: 3865 seconds
#
# Revision: 0
# Processed by: cddbd v1.5.2PL0 Copyright (c) Steve Scherf et al.
# Submitted via: ExactAudioCopy v1.3
#
DISCID=210f1714
DTITLE=Ray Charles - La voix des geants [CD2)
DYEAR=2016
DGENRE=R&B
TTITLE0=What'd I say
TTITLE1=Tell the truth
TTITLE2=Tell me you'll wait for me
TTITLE3=Come rain or come shine
TTITLE4=Don't let the sun catch you cryin'
TTITLE5=Just for a thrill
TTITLE6=Alexander's Ragtime Band
TTITLE7=When your lover has gone
TTITLE8=I believe to my soul
TTITLE9=Them that got
TTITLE10=Georgia on my mind
TTITLE11=Carry me back to old Virginny
TTITLE12=Sticks and Stones
TTITLE13=Worried life blues
TTITLE14=Sweet Georgia Brown
TTITLE15=I'm gonna move to the outskirts of town
TTITLE16=Ev'ry time we say goodbye
TTITLE17=Unchain my heart
TTITLE18=Hit the road Jack
TTITLE19=But on the other hand baby
EXTD=
EXTT0=
EXTT1=
EXTT2=
EXTT3=
EXTT4=
EXTT5=
EXTT6=
EXTT7=
EXTT8=
EXTT9=
EXTT10=
EXTT11=
EXTT12=
EXTT13=
EXTT14=
EXTT15=
EXTT16=
EXTT17=
EXTT18=
EXTT19=
PLAYORDER=
